<?xml version="1.0" encoding="iso-8859-1"?>
<!-- Generator: Adobe Illustrator 19.0.0, SVG Export Plug-In . SVG Version: 6.00 Build 0)  -->
<svg version="1.1" id="Capa_1" xmlns="http://www.w3.org/2000/svg" xmlns:xlink="http://www.w3.org/1999/xlink" x="0px" y="0px"
	 viewBox="0 0 512 512" style="enable-background:new 0 0 512 512;" xml:space="preserve">
<g>
	<path style="fill:#FFFBEE;" d="M136.001,190.002H376V154.91c31.321-3.373,55.711-29.891,55.711-62.109
		c0-34.502-27.971-62.473-62.474-62.473c-20.193,0-38.146,9.582-49.566,24.447C310.297,28.672,285.33,10,256,10
		s-54.296,18.672-63.671,44.775c-11.421-14.865-29.373-24.447-49.565-24.447c-34.504,0-62.475,27.971-62.475,62.473
		c0,32.219,24.39,58.736,55.712,62.109L136.001,190.002L136.001,190.002z"/>
	<g>
		<path style="fill:#F4D99D;" d="M136.001,190.002L136.001,190.002L136.001,190.002z M136,250v-59.998h-9.999
			c-16.568,0-30,13.43-30,29.998c0,16.57,13.432,30,30,30H136z"/>
		<path style="fill:#F4D99D;" d="M136,190.002V250c0,28.434,10.02,54.637,26.705,75.258C184.75,352.504,218.43,370,256.001,370
			c37.568,0,71.248-17.496,93.293-44.742C365.979,304.637,376,278.434,376,250v-59.998H136z"/>
		<path style="fill:#F4D99D;" d="M376,190.002V250h9.999c16.568,0,30-13.43,30-30c0-16.568-13.432-29.998-30-29.998H376z"/>
	</g>
	<path style="fill:#FF435F;" d="M116,502V359.525C79.019,395.865,55.999,446.371,55.999,502H116z"/>
	<path style="fill:#CC3B5A;" d="M255.998,370L255.998,370L255.998,370z M116,359.525V502h280.001V359.525
		c-13.786-13.547-29.511-25.125-46.707-34.267C327.249,352.504,293.569,370,256.001,370c-37.571,0-71.251-17.496-93.296-44.742
		C145.509,334.398,129.784,345.979,116,359.525z"/>
	<path style="fill:#FF435F;" d="M396.001,359.525V502h60C456.001,446.373,432.982,395.867,396.001,359.525z"/>
	<circle style="fill:#FFBA5A;" cx="326.5" cy="432.86" r="26.5"/>
</g>
<path d="M188.574,239.753c5.078-1.358,10.449-1.362,15.529,0c5.08,1.361,9.732,4.047,13.449,7.766
	c1.953,1.952,4.512,2.929,7.071,2.929c2.56,0,5.118-0.977,7.071-2.929c3.905-3.905,3.905-10.237,0-14.143
	c-6.197-6.196-13.947-10.672-22.416-12.941c-8.465-2.268-17.414-2.268-25.879,0c-5.335,1.429-8.501,6.911-7.072,12.246
	C177.756,238.016,183.237,241.187,188.574,239.753z"/>
<path d="M287.376,250.447c2.56,0,5.118-0.977,7.071-2.929c3.718-3.719,8.369-6.404,13.447-7.766c5.08-1.359,10.451-1.359,15.531,0
	c5.334,1.432,10.818-1.738,12.246-7.072c1.429-5.335-1.737-10.817-7.072-12.246c-8.465-2.267-17.414-2.267-25.881,0
	c-8.467,2.27-16.217,6.745-22.414,12.941c-3.905,3.905-3.905,10.237,0,14.143C282.258,249.471,284.816,250.447,287.376,250.447z"/>
<path d="M227.341,298.669c-2.762,4.783-1.122,10.898,3.661,13.659c7.592,4.383,16.235,6.699,24.998,6.699
	c8.762,0,17.406-2.316,24.999-6.698c4.783-2.761,6.423-8.877,3.662-13.66c-2.761-4.783-8.873-6.423-13.66-3.662
	c-4.557,2.631-9.744,4.021-15.001,4.021c-5.257,0-10.443-1.39-15-4.02C236.217,292.244,230.101,293.885,227.341,298.669z"/>
<path d="M364.083,322.155c12.092-18.052,19.788-39.284,21.536-62.155h0.38c22.056,0,40-17.944,40-40S408.056,180,386,180v-16.67
	c32.321-7.601,55.711-36.483,55.711-70.529c0-39.962-32.512-72.473-72.474-72.473c-17.443,0-33.86,6.105-46.81,17.113
	C308.548,14.567,283.439,0,256,0c-27.438,0-52.547,14.567-66.427,37.442c-12.95-11.008-29.366-17.113-46.81-17.113
	c-39.963,0-72.475,32.511-72.475,72.473c0,34.046,23.391,62.929,55.712,70.529V180c-22.056,0-40,17.944-40,40s17.944,40,40,40h0.38
	c1.748,22.871,9.444,44.103,21.535,62.154C84.765,360.242,45.999,428.127,45.999,502c0,5.522,4.478,10,10,10h400.002
	c5.522,0,10-4.478,10-10C466.001,428.128,427.234,360.244,364.083,322.155z M406.001,385.604
	c23.525,30.206,37.673,67.163,39.736,106.396h-39.736V385.604z M405.999,220c0,11.028-8.971,20-19.999,20v-40
	C397.028,200,405.999,208.972,405.999,220z M90.289,92.801c0-28.934,23.54-52.473,52.475-52.473
	c14.751,0,28.477,6.049,38.389,16.729c-1.845,6.697-2.789,13.594-2.789,20.58c0,2.908,0.166,5.848,0.493,8.738
	c0.578,5.105,4.904,8.876,9.924,8.876c0.376,0,0.756-0.021,1.138-0.064c5.487-0.621,9.433-5.573,8.812-11.062
	c-0.243-2.146-0.366-4.329-0.366-6.488c0-6.659,1.141-13.212,3.391-19.478c0.022-0.064,0.037-0.129,0.059-0.193
	C210.061,35.25,231.81,20,256,20c24.259,0,46.064,15.333,54.26,38.155c1.235,3.442,4.252,5.935,7.865,6.5
	c3.625,0.568,7.248-0.888,9.476-3.787c10.029-13.054,25.205-20.54,41.637-20.54c28.934,0,52.474,23.539,52.474,52.473
	c0,26.868-20.111,49.295-46.781,52.167c-5.079,0.547-8.93,4.834-8.93,9.942V180h-220v-25.09c0-5.108-3.851-9.396-8.93-9.942
	C110.401,142.096,90.289,119.669,90.289,92.801z M106.001,220c0-11.028,8.971-20,19.999-20v40
	C114.972,240,106.001,231.028,106.001,220z M146,200h220v50c0,25.656-8.831,49.287-23.61,68.019
	c-0.605,0.577-1.141,1.24-1.598,1.981c-20.193,24.416-50.707,40-84.794,40c-34.088,0-64.603-15.587-84.795-40.006
	c-0.455-0.736-0.988-1.397-1.591-1.972C154.832,299.291,146,275.658,146,250V200z M246.003,379.619l0.001,8.23
	c0.001,5.522,4.478,9.998,10,9.998c0,0,0.001,0,0.002,0c5.522-0.001,9.999-4.478,9.998-10.002l-0.001-8.227
	c33.753-2.58,63.937-18.112,85.592-41.617c12.55,7.35,24.063,15.985,34.406,25.688V492H126V363.688
	c10.343-9.702,21.855-18.337,34.405-25.686C182.061,361.507,212.246,377.04,246.003,379.619z M106,492H66.263
	c2.063-39.233,16.211-76.191,39.737-106.398V492z"/>
<path d="M256.004,427.406c5.522,0,10-4.478,10-10v-0.475c0-5.522-4.478-10-10-10s-10,4.478-10,10v0.475
	C246.004,422.929,250.482,427.406,256.004,427.406z"/>
<path d="M188.742,116.418c1.846,3.23,5.22,5.041,8.691,5.041c1.683,0,3.388-0.425,4.952-1.319c4.796-2.74,6.462-8.849,3.722-13.644
	l-0.19-0.333c-2.745-4.792-8.856-6.454-13.647-3.708c-4.793,2.745-6.453,8.855-3.708,13.647L188.742,116.418z"/>
<path d="M326.501,469.363c20.126,0,36.5-16.374,36.5-36.5s-16.374-36.5-36.5-36.5s-36.5,16.374-36.5,36.5
	S306.375,469.363,326.501,469.363z M326.501,416.363c9.098,0,16.5,7.402,16.5,16.5s-7.402,16.5-16.5,16.5s-16.5-7.402-16.5-16.5
	C310.001,423.766,317.403,416.363,326.501,416.363z"/>
<g>
</g>
<g>
</g>
<g>
</g>
<g>
</g>
<g>
</g>
<g>
</g>
<g>
</g>
<g>
</g>
<g>
</g>
<g>
</g>
<g>
</g>
<g>
</g>
<g>
</g>
<g>
</g>
<g>
</g>
</svg>
